{"asset":{"version":"2.0","generator":"Unity 2022.3.42f1 glTFast 6.10.1"},"nodes":[{"name":"Assyq","mesh":0}],"buffers":[{"uri":"Assyq.bin","byteLength":773576}],"bufferViews":[{"buffer":0,"byteLength":324552,"target":34963},{"buffer":0,"byteLength":336768,"byteOffset":324552,"byteStride":24,"target":34962},{"buffer":0,"byteLength":112256,"byteOffset":661320,"byteStride":8,"target":34962}],"accessors":[{"bufferView":1,"componentType":5126,"count":14032,"type":"VEC3","max":[0.0369590521,0.0236135423,0.0277593732],"min":[-0.0364519656,-0.023587659,-0.0262456387]},{"bufferView":1,"componentType":5126,"count":14032,"type":"VEC3","byteOffset":12},{"bufferView":2,"componentType":5126,"count":14032,"type":"VEC2"},{"bufferView":0,"componentType":5125,"count":81138,"type":"SCALAR"}],"images":[{"name":"Assyq.jpg","uri":"Assyq.jpg","mimeType":"image/jpeg"},{"name":"Assyq.png","uri":"Assyq.png","mimeType":"image/png"}],"materials":[{"name":"ASYQSUIEK","pbrMetallicRoughness":{"baseColorFactor":[0.472552717,0.301413268,0.301413268,1],"metallicFactor":0,"baseColorTexture":{"index":0},"metallicRoughnessTexture":{"index":1}},"doubleSided":true}],"meshes":[{"name":"Object_0","primitives":[{"attributes":{"POSITION":0,"NORMAL":1,"TEXCOORD_0":2},"indices":3,"material":0}]}],"samplers":[{"minFilter":9987}],"scene":0,"scenes":[{"name":"Assyq","nodes":[0]}],"textures":[{"source":0,"sampler":0},{"source":1,"sampler":0}]}